<?xml version="1.0" encoding="iso-8859-1"?>
<!--Generator: Adobe Illustrator 19.0.0, SVG Export Plug-In . SVG Version: 6.00 Build 0)-->
<svg xmlns="http://www.w3.org/2000/svg" xmlns:xlink="http://www.w3.org/1999/xlink" id="Capa_1" x="0px" y="0px" style="enable-background:new 0 0 512 512" version="1.1" viewBox="0 0 512 512" xml:space="preserve">
    <path d="M425.479,305.865L405.292,73.74l-0.048,0.004C404.276,32.327,339.105,0,256,0
	S107.724,32.327,106.757,73.743l-0.048-0.004L86.521,305.865c-0.792,9.104-1.188,18.24-1.188,27.385
	c0,48.792,11.542,97.656,33.354,141.323l1.563,3.135c7.729,15.406,22.271,26.156,38.896,28.75C182.688,510.135,215.292,512,256,512
	s73.313-1.865,96.854-5.542c16.625-2.594,31.167-13.344,38.896-28.76l1.563-3.125c21.813-43.667,33.354-92.531,33.354-141.323
	C426.667,324.104,426.271,314.969,425.479,305.865z" style="fill:#303C42"/>
    <g>
        <path d="M124.887,110.909c25.128,23.079,73.867,38.424,131.113,38.424s105.986-15.345,131.113-38.424
		l13.728,157.858c-16.917,2.934-60.367,8.566-144.841,8.566s-127.924-5.633-144.841-8.566L124.887,110.909z" style="fill:#FAFAFA"/>
        <path d="M256,21.333c75.438,0,128,28.104,128,53.333S331.438,128,256,128S128,99.896,128,74.667
		S180.563,21.333,256,21.333z" style="fill:#FAFAFA"/>
    </g>
    <path d="M266.667,42.667c55.271,0,98.159,15.102,117.194,33.09
	c0.021-0.362,0.139-0.729,0.139-1.09c0-25.229-52.563-53.333-128-53.333S128,49.438,128,74.667c0,6.745,3.861,13.68,10.806,20.243
	C140.284,69.966,192.309,42.667,266.667,42.667z" style="opacity:0.2;fill:#FFFFFF;enable-background:new"/>
    <path d="M372.667,468.146c-4.625,9.26-13.271,15.698-23.104,17.229c-15.438,2.417-44.208,5.292-93.563,5.292
	s-78.125-2.875-93.563-5.292c-9.833-1.531-18.479-7.969-23.104-17.219l-1.563-3.125c-0.466-0.932-0.776-1.938-1.232-2.875
	c21.48,3.18,60.214,7.177,119.461,7.177s97.98-3.997,119.461-7.177c-0.456,0.938-0.766,1.943-1.232,2.875L372.667,468.146z" style="fill:#6C7175"/>
    <path d="M385.469,438.809C371.883,441.449,330.857,448,256,448c-74.859,0-115.883-6.549-129.469-9.191
	c-12.887-33.641-19.865-69.566-19.865-105.559c0-8.521,0.354-17.031,1.104-25.531l1.531-17.604
	c19.418,3.26,63.633,8.552,146.698,8.552s127.28-5.292,146.698-8.552l1.531,17.604c0.75,8.5,1.104,17.01,1.104,25.531
	C405.333,369.242,398.355,405.167,385.469,438.809z" style="fill:#D7D8D6"/>
    <path d="M400.841,268.767l-13.728-157.858c-4.668,4.288-10.393,8.201-16.594,11.905
	l8.493,148.957C388.612,270.678,395.977,269.611,400.841,268.767z" style="opacity:0.1;enable-background:new"/>
    <g>
        <path d="M124.887,110.909l-13.728,157.858
		c4.865,0.844,12.229,1.911,21.828,3.004l8.493-148.957C135.28,119.109,129.555,115.197,124.887,110.909z" style="opacity:0.2;fill:#FFFFFF;enable-background:new"/>
        <path d="M156,468.156l-1.34-3.125
		c-0.082-0.191-0.143-0.393-0.216-0.589c-6.893-0.767-12.915-1.548-17.905-2.286c0.456,0.938,0.766,1.943,1.232,2.875l1.563,3.125
		c4.625,9.25,13.271,15.688,23.104,17.219c15.438,2.417,44.208,5.292,93.563,5.292c-42.303,0-66.965-2.875-80.197-5.292
		C167.375,483.844,159.965,477.406,156,468.156z" style="opacity:0.2;fill:#FFFFFF;enable-background:new"/>
    </g>
    <path d="M357.34,465.031l-1.34,3.115c-3.965,9.26-11.375,15.698-19.803,17.229
	c-13.232,2.417-37.893,5.292-80.197,5.292c49.354,0,78.125-2.875,93.563-5.292c9.833-1.531,18.479-7.969,23.104-17.229l1.563-3.115
	c0.466-0.932,0.776-1.938,1.232-2.875c-4.99,0.738-11.012,1.52-17.905,2.286C357.483,464.638,357.422,464.84,357.34,465.031z" style="opacity:0.1;enable-background:new"/>
    <path d="M128.947,297.788l0.315-4.906
	c-8.402-0.974-15.012-1.936-19.96-2.767l-1.531,17.604c-0.75,8.5-1.104,17.01-1.104,25.531c0,35.992,6.978,71.918,19.865,105.559
	c3.533,0.688,9.021,1.641,16.376,2.672C133.346,404.879,128,366.245,128,327.452C128,317.552,128.303,307.664,128.947,297.788z" style="opacity:0.2;fill:#FFFFFF;enable-background:new"/>
    <path d="M404.229,307.719l-1.531-17.604c-4.948,0.831-11.557,1.793-19.96,2.767
	l0.315,4.906c0.643,9.876,0.947,19.764,0.947,29.664c0,38.793-5.346,77.427-14.908,114.029c7.355-1.031,12.844-1.986,16.376-2.672
	c12.887-33.642,19.865-69.566,19.865-105.559C405.333,324.729,404.979,316.219,404.229,307.719z" style="opacity:0.1;enable-background:new"/>
    <circle cx="256" cy="53.333" r="10.667" style="fill:#00AAE7"/>
    <circle cx="256" cy="96" r="10.667" style="fill:#FFDA02"/>
    <circle cx="288" cy="74.667" r="10.667" style="fill:#D32F2F"/>
    <circle cx="224" cy="74.667" r="10.667" style="fill:#2CB34A"/>
    <linearGradient id="SVGID_1_" x1="-43.9927" x2="-25.6125" y1="638.489" y2="629.9174" gradientTransform="matrix(21.3333 0 0 -21.3333 996.3334 13791.667)" gradientUnits="userSpaceOnUse">
        <stop offset="0" style="stop-color:#FFFFFF;stop-opacity:0.2"/>
        <stop offset="1" style="stop-color:#FFFFFF;stop-opacity:0"/>
    </linearGradient>
    <path d="M425.479,305.865L405.292,73.74l-0.048,0.004C404.276,32.327,339.105,0,256,0
	S107.724,32.327,106.757,73.743l-0.048-0.004L86.521,305.865c-0.792,9.104-1.188,18.24-1.188,27.385
	c0,48.792,11.542,97.656,33.354,141.323l1.563,3.135c7.729,15.406,22.271,26.156,38.896,28.75C182.688,510.135,215.292,512,256,512
	s73.313-1.865,96.854-5.542c16.625-2.594,31.167-13.344,38.896-28.76l1.563-3.125c21.813-43.667,33.354-92.531,33.354-141.323
	C426.667,324.104,426.271,314.969,425.479,305.865z" style="fill:url(#SVGID_1_)"/>
</svg>
